PathFileType	4	(X/Y/Z)	1H_nor_slow_left.trc
DataRate	CameraRate	NumFrames	NumMarkers	Units	OrigDataRate	OrigDataStartFrame	OrigNumFrames
250.00	250.00	20	18	mm	250.00	2561	20480
Frame#	Time	c7	r_should	l_should	clavicle	r_upa	r_elb_l	r_elb_m	r_low	r_wri_l	r_wri_m	r_met	l_upa	l_elb_l	l_elb_m	l_low	l_wri_l	l_wri_m	l_met
	X1	Y1	Z1	X2	Y2	Z2	X3	Y3	Z3	X4	Y4	Z4	X5	Y5	Z5	X6	Y6	Z6	X7	Y7	Z7	X8	Y8	Z8	X9	Y9	Z9	X10	Y10	Z10	X11	Y11	Z11	X12	Y12	Z12	X13	Y13	Z13	X14	Y14	Z14	X15	Y15	Z15	X16	Y16	Z16	X17	Y17	Z17	X18	Y18	Z18
2561	10.24000	1212.86340	1431.18945	186.26839	1231.03589	1353.02246	352.06448	1260.83472	1375.85950	11.43208	1320.44263	1289.03894	188.72943	1220.50757	1149.42822	426.38171	1208.46228	1068.53723	452.76141	1143.06104	1037.35938	388.07434	1250.52551	946.53589	443.04611	1297.86023	834.87518	419.14166	1226.58228	818.18518	443.49432	1314.90979	766.73511	457.00406	1294.55823	1169.98633	-66.51756	1316.22864	1083.68066	-80.89420	1238.77258	1059.18091	-33.77866	1375.89795	1011.07977	-16.42247	1424.44592	971.08209	80.09826	1386.65674	903.10913	54.30365	1485.68091	911.23456	96.76763
2562	10.24400	1212.86597	1431.18567	186.26793	1231.05432	1353.02490	352.06238	1260.83911	1375.87781	11.42745	1320.46960	1289.04297	188.72458	1220.54785	1149.43335	426.39337	1207.63623	1069.55994	452.71658	1143.11243	1037.35999	388.08472	1250.58716	946.53754	443.07709	1297.94263	834.88330	419.18765	1226.65979	818.18481	443.53741	1314.99841	766.75073	457.05386	1294.59961	1170.03088	-66.57941	1316.24097	1083.81848	-80.97789	1238.77002	1059.30286	-33.88963	1375.98608	1011.42694	-16.42883	1424.52490	971.67535	80.10482	1386.72351	903.61029	54.42183	1485.86816	911.94696	96.95385
2563	10.24800	1212.86792	1431.18164	186.26997	1231.07153	1353.02905	352.06439	1260.84924	1375.90198	11.40683	1320.49585	1289.05164	188.72789	1220.58582	1149.43799	426.40485	1207.40698	1069.71741	452.64023	1143.16138	1037.36621	388.09213	1250.64441	946.54633	443.10342	1298.02417	834.89526	419.22916	1226.73022	818.19336	443.58395	1315.08264	766.77203	457.10605	1294.63342	1170.08142	-66.64878	1316.24463	1083.95862	-81.07263	1238.77319	1059.42529	-33.98965	1376.07751	1011.76501	-16.42541	1424.61633	972.29016	80.13570	1386.81787	904.10089	54.61361	1486.06177	912.66357	97.15211
2564	10.25200	1212.87732	1431.17456	186.27104	1231.08997	1353.03455	352.06531	1260.86206	1375.91760	11.40268	1320.52673	1289.06372	188.73804	1220.62207	1149.44531	426.41364	1207.33154	1069.65527	452.54123	1143.21558	1037.36975	388.09814	1250.69849	946.55859	443.13382	1298.09619	834.90814	419.27383	1226.80518	818.19690	443.61035	1315.16138	766.79626	457.16138	1294.67773	1170.13428	-66.70888	1316.24194	1084.09814	-81.16401	1238.77515	1059.54688	-34.10338	1376.17175	1012.09760	-16.41355	1424.72607	972.90955	80.19781	1386.89221	904.59949	54.83412	1486.24414	913.37726	97.35789
2565	10.25600	1212.88770	1431.17163	186.26982	1231.10999	1353.04102	352.06009	1260.86877	1375.93054	11.41407	1320.55408	1289.07275	188.73274	1220.66516	1149.45032	426.42148	1207.40503	1069.75671	452.60568	1143.26880	1037.37402	388.10651	1250.75977	946.57593	443.16714	1298.17273	834.92139	419.31967	1226.88354	818.20435	443.63760	1315.24341	766.81989	457.21320	1294.72278	1170.19214	-66.76540	1316.24670	1084.23047	-81.26442	1238.77551	1059.65930	-34.21677	1376.26575	1012.41278	-16.40350	1424.35266	974.03430	79.84972	1386.87390	905.14252	54.95149	1486.42676	914.09174	97.55488
2566	10.26000	1212.89978	1431.17017	186.26108	1231.12817	1353.04480	352.05237	1260.88647	1375.94458	11.41083	1320.58936	1289.08521	188.73514	1220.70813	1149.46191	426.43378	1207.41248	1069.68774	452.55890	1143.32178	1037.37903	388.10678	1250.81970	946.58423	443.19305	1298.24487	834.93744	419.35886	1226.95923	818.21790	443.66830	1315.32410	766.84357	457.26965	1294.75867	1170.24927	-66.82793	1316.25232	1084.36096	-81.38016	1238.77197	1059.77295	-34.33116	1376.35889	1012.73334	-16.39243	1423.84607	975.28699	79.38380	1386.75732	905.71332	55.00376	1486.60547	914.80347	97.74755
2567	10.26400	1212.91541	1431.16443	186.25719	1231.14819	1353.05078	352.05023	1260.89917	1375.95850	11.41181	1320.62329	1289.10156	188.73950	1220.75159	1149.47766	426.44711	1207.55884	1069.90674	452.71857	1143.38220	1037.37830	388.10983	1250.88379	946.59747	443.21829	1298.31677	834.95697	419.39490	1227.03467	818.22980	443.69824	1315.39941	766.87244	457.32751	1294.78625	1170.30872	-66.90244	1316.26965	1084.49316	-81.51336	1238.77539	1059.87878	-34.44698	1376.44873	1013.05414	-16.40416	1424.22742	975.54425	79.69697	1386.60364	906.28302	55.00673	1486.77063	915.51147	97.93579
2568	10.26800	1212.93115	1431.16187	186.25023	1231.17371	1353.05981	352.04297	1260.91089	1375.97205	11.41492	1320.65918	1289.11658	188.73509	1220.79822	1149.49561	426.44965	1207.63110	1069.96191	452.76535	1143.43958	1037.37952	388.11591	1250.94177	946.61517	443.24008	1298.38831	834.96692	419.42337	1227.10840	818.24854	443.73001	1315.47852	766.90021	457.38309	1294.80981	1170.37244	-66.97620	1316.28638	1084.62256	-81.64359	1238.77710	1059.98596	-34.56230	1376.53870	1013.37292	-16.43426	1423.46814	977.11139	78.94182	1386.44446	906.90234	55.01284	1486.93530	916.22693	98.11539
2569	10.27200	1212.94531	1431.15991	186.23730	1231.20166	1353.06812	352.03333	1260.90942	1375.97876	11.44089	1320.69971	1289.13562	188.72510	1220.84399	1149.50989	426.45026	1207.69421	1069.98633	452.78891	1143.50537	1037.37305	388.12756	1250.99866	946.63690	443.25513	1298.45715	834.97241	419.45648	1227.17517	818.26331	443.75671	1315.55884	766.92511	457.43747	1294.82251	1170.43005	-67.05755	1316.30005	1084.75427	-81.77431	1238.77441	1060.09424	-34.68100	1376.63892	1013.71265	-16.46897	1423.35596	977.98383	78.75602	1386.26611	907.58246	55.04996	1487.10303	916.93286	98.29936
2570	10.27600	1212.96460	1431.15637	186.22647	1231.23206	1353.07288	352.02377	1260.90381	1375.99011	11.47010	1320.74402	1289.15601	188.71233	1220.89099	1149.52112	426.44547	1207.75928	1070.00366	452.79282	1143.56470	1037.36133	388.13358	1251.06055	946.65143	443.26270	1298.52625	834.98999	419.49185	1227.24207	818.27057	443.77185	1315.63611	766.94684	457.48502	1294.82825	1170.49573	-67.14016	1316.30969	1084.89148	-81.90620	1238.77856	1060.20361	-34.80318	1376.73853	1014.06000	-16.49225	1423.40662	978.70178	78.70753	1386.09290	908.26068	55.11308	1487.26904	917.63141	98.48586
2571	10.28000	1212.98572	1431.15637	186.21339	1231.45544	1352.97107	352.05350	1260.88647	1375.99963	11.49819	1320.79126	1289.18506	188.69553	1220.94580	1149.53210	426.44556	1207.81763	1070.02014	452.79254	1143.62585	1037.35681	388.13983	1251.12561	946.66357	443.27737	1298.59644	835.00421	419.52573	1227.30847	818.27582	443.79285	1315.71069	766.96411	457.53452	1294.83252	1170.56055	-67.22191	1316.32202	1085.03345	-82.03654	1238.79248	1060.32361	-34.90982	1376.83630	1014.42291	-16.52623	1423.48279	979.37848	78.70120	1385.96167	908.92157	55.21018	1487.43701	918.34357	98.68067
2572	10.28400	1213.00793	1431.16028	186.20035	1231.91553	1352.73706	352.12134	1260.87708	1376.01624	11.50866	1320.83521	1289.21191	188.68358	1220.99841	1149.54846	426.44504	1207.87671	1070.03821	452.81180	1143.69299	1037.35034	388.13983	1251.18921	946.67749	443.29950	1298.66003	835.01453	419.55978	1227.36865	818.28235	443.81744	1315.78650	766.98041	457.58450	1294.84058	1170.63416	-67.29615	1316.33606	1085.19202	-82.15029	1238.81775	1060.44116	-35.01060	1376.93616	1014.79504	-16.55227	1423.55432	980.02234	78.72935	1385.87537	909.57654	55.30087	1487.59705	919.05646	98.87203
2573	10.28800	1213.02661	1431.15881	186.19922	1231.87427	1352.78882	352.10229	1260.85547	1376.02380	11.54715	1320.87915	1289.23413	188.67468	1221.04504	1149.56885	426.45078	1207.92725	1070.03088	452.83142	1143.75781	1037.34326	388.14822	1251.24573	946.69110	443.32391	1298.71851	835.02448	419.59305	1227.42810	818.29224	443.84741	1315.84839	766.99554	457.63654	1294.85303	1170.70776	-67.36691	1316.35718	1085.35645	-82.25314	1238.83752	1060.55579	-35.11122	1377.02063	1015.15033	-16.56484	1423.62805	980.63794	78.77874	1385.91113	910.16656	55.50760	1487.76050	919.76227	99.06447
2574	10.29200	1213.04541	1431.15601	186.20717	1231.52014	1353.01782	352.04077	1260.83752	1376.02954	11.58094	1320.91064	1289.24622	188.67070	1221.08594	1149.57422	426.46426	1207.97510	1070.03931	452.86783	1143.81995	1037.33606	388.17035	1251.29260	946.69922	443.36349	1298.77563	835.02808	419.62231	1227.48499	818.29413	443.87985	1315.90076	767.00580	457.69580	1294.85791	1170.78113	-67.44185	1316.38000	1085.51807	-82.34009	1238.86865	1060.68518	-35.21037	1377.09851	1015.50067	-16.56805	1423.70581	981.24237	78.84569	1386.02478	910.72571	55.77680	1487.91577	920.46649	99.24780
2575	10.29600	1213.06287	1431.14600	186.21976	1231.45959	1353.07605	352.03253	1260.83142	1376.04175	11.59729	1320.93689	1289.25439	188.67355	1221.11792	1149.57349	426.47858	1208.01855	1070.04480	452.90576	1143.88184	1037.33374	388.18521	1251.33228	946.69861	443.40030	1298.82886	835.02661	419.67554	1227.53003	818.28296	443.91669	1315.94861	767.01428	457.75983	1294.85986	1170.85095	-67.51227	1316.39160	1085.67383	-82.42010	1238.90234	1060.81384	-35.30421	1377.18115	1015.85541	-16.53483	1423.77661	981.86255	78.90112	1386.17029	911.27368	56.00224	1488.06238	921.17523	99.42538
2576	10.30000	1213.08008	1431.13928	186.23586	1231.47253	1353.08972	352.03656	1260.83936	1376.05481	11.60903	1320.96411	1289.25488	188.67957	1221.15039	1149.57739	426.49554	1208.04614	1070.03979	452.94562	1143.94287	1037.33179	388.19659	1251.36768	946.69305	443.43866	1298.88220	835.02368	419.72720	1227.57678	818.28906	443.95581	1315.99548	767.02777	457.82565	1294.86206	1170.91760	-67.57130	1316.40320	1085.82092	-82.50020	1238.93091	1060.92957	-35.39324	1377.25879	1016.20319	-16.49658	1423.84558	982.50861	78.94616	1386.33301	911.77325	56.17485	1488.20825	921.88678	99.60594
2577	10.30400	1213.09900	1431.13293	186.24722	1231.50708	1353.08813	352.04321	1260.85522	1376.07202	11.61307	1320.99658	1289.25513	188.68541	1221.18958	1149.57520	426.50778	1208.09509	1070.04419	452.98541	1143.99963	1037.33313	388.21164	1251.41052	946.68011	443.48407	1298.92896	835.03070	419.77347	1227.62732	818.28394	443.99423	1316.04431	767.03632	457.88223	1294.86841	1170.97473	-67.62904	1316.41553	1085.95203	-82.57877	1238.94287	1061.03394	-35.47864	1377.32373	1016.54718	-16.47813	1423.60693	983.05328	78.72199	1386.57617	912.21283	56.38241	1488.36255	922.59418	99.79970
2578	10.30800	1213.12183	1431.12476	186.25624	1231.54541	1353.08606	352.04892	1260.87903	1376.08032	11.61083	1321.03467	1289.26282	188.68628	1221.23645	1149.57385	426.51840	1208.15149	1070.05310	452.99734	1144.05579	1037.33459	388.23190	1251.46106	946.67542	443.51590	1298.97681	835.02625	419.81287	1227.67688	818.27893	444.02817	1316.09229	767.03687	457.92429	1294.87415	1171.02625	-67.69122	1316.42529	1086.07581	-82.65919	1238.95642	1061.12793	-35.56243	1377.39417	1016.89026	-16.45676	1423.29333	983.55408	78.41767	1386.86487	912.68549	56.63682	1488.51624	923.29291	99.98614
2579	10.31200	1213.14404	1431.12268	186.26155	1231.59070	1353.08655	352.05862	1260.90686	1376.08789	11.60712	1321.07471	1289.26819	188.68771	1221.29077	1149.57361	426.53043	1208.20483	1070.05139	453.00354	1144.10864	1037.32947	388.24399	1251.51013	946.67877	443.54092	1299.02966	835.02136	419.85153	1227.72412	818.27380	444.05264	1316.13684	767.03632	457.96790	1294.88489	1171.07458	-67.74801	1316.42859	1086.19812	-82.74572	1238.96667	1061.22559	-35.64438	1377.46851	1017.23029	-16.44092	1423.88062	984.36176	78.85157	1387.11328	913.19238	56.85839	1488.65527	924.00287	100.15893
2580	10.31600	1213.16907	1431.12354	186.26169	1231.63525	1353.09436	352.06955	1260.92810	1376.09375	11.61685	1321.11877	1289.27112	188.69081	1221.34180	1149.57214	426.53745	1208.25806	1070.05005	453.01724	1144.16187	1037.32495	388.25250	1251.56274	946.67633	443.55835	1299.08337	835.02039	419.88733	1227.77393	818.27698	444.07571	1316.17834	767.03711	458.00674	1294.89392	1171.12146	-67.80099	1316.42383	1086.31470	-82.82962	1238.96533	1061.32251	-35.72296	1377.53333	1017.55786	-16.43499	1424.06250	985.01624	78.99033	1387.34192	913.62555	57.07990	1488.79187	924.70715	100.34143
